<svg xmlns="http://www.w3.org/2000/svg" viewBox="0 0 9398 6408" width="9398" height="6408">
    <style>
        .line { stroke: #6b7280; stroke-width: 14; fill: none; stroke-linecap: round; stroke-linejoin: round; }
        .thin { stroke: #9ca3af; stroke-width: 9; fill: none; stroke-linecap: round; stroke-linejoin: round; }
        .symbol { stroke: #52525b; stroke-width: 12; fill: none; stroke-linecap: round; stroke-linejoin: round; }
        .text { font-family: "Avenir Next", "Helvetica Neue", sans-serif; font-size: 118px; fill: #52525b; }
        .title { font-family: "Avenir Next", "Helvetica Neue", sans-serif; font-size: 172px; fill: #4b5563; letter-spacing: 4px; }
        .dot-yellow { fill: #f6d84c; }
        .dot-gray { fill: #a1a1aa; }
        .sq { stroke: #8b8fa0; stroke-width: 10; fill: none; }
    </style>

    <rect width="9398" height="6408" fill="#ffffff"/>
    <text x="4330" y="420" class="title">HAUPTRAUM</text>

    <path class="line" d="M 2470 2720 L 2680 1530 L 3490 1510"/>
    <path class="line" d="M 3490 1510 L 3700 1510"/>
    <path class="line" d="M 3710 1460 L 3710 1510 L 3900 1510"/>
    <path class="line" d="M 3900 1510 L 5180 1500"/>
    <path class="line" d="M 5180 1500 L 5330 1500"/>
    <path class="line" d="M 5340 1450 L 5340 1505 L 6290 1485"/>
    <path class="line" d="M 6290 1485 L 6485 1480"/>
    <path class="line" d="M 6490 1430 L 6490 1480 L 8110 1470"/>
    <path class="line" d="M 8110 1470 L 8615 1555 L 8940 1720"/>
    <path class="line" d="M 8940 1720 L 7920 2600"/>

    <path class="line" d="M 2485 2710 L 3320 2660"/>
    <path class="line" d="M 3330 2660 L 3465 2660"/>
    <path class="line" d="M 3465 2660 L 3615 2660"/>
    <path class="line" d="M 3615 2660 L 4925 2630"/>
    <path class="line" d="M 4925 2630 L 6205 2630"/>
    <path class="line" d="M 6205 2630 L 7510 2620"/>
    <path class="line" d="M 7510 2620 L 7930 2600"/>

    <path class="line" d="M 2485 2710 L 2485 5580"/>
    <path class="line" d="M 2485 5580 L 3080 6150"/>
    <path class="line" d="M 3080 6150 L 7800 6110"/>
    <path class="line" d="M 7800 6110 L 8510 6120"/>
    <path class="line" d="M 7920 2600 L 7930 5570"/>
    <path class="line" d="M 7930 5570 L 8690 6060"/>

    <path class="line" d="M 2485 5580 L 7960 5315"/>
    <path class="thin" d="M 4040 3600 L 4075 6120"/>
    <path class="thin" d="M 4925 3510 L 4955 6110"/>
    <path class="thin" d="M 6170 3490 L 6175 6105"/>
    <path class="thin" d="M 2435 6130 L 2540 5975"/>
    <path class="thin" d="M 2530 5970 L 2615 6140"/>

    <path class="line" d="M 3460 3460 L 3460 6070"/>
    <path class="line" d="M 4630 3430 L 4630 6045"/>
    <path class="line" d="M 6205 3405 L 6205 5995"/>
    <path class="thin" d="M 3900 3450 L 4940 3465"/>
    <path class="thin" d="M 5055 3440 L 5325 3445"/>

    <rect x="3650" y="1460" width="82" height="70" class="sq"/>
    <rect x="5270" y="1430" width="85" height="72" class="sq"/>
    <rect x="6435" y="1385" width="88" height="75" class="sq"/>
    <rect x="2460" y="2615" width="88" height="70" class="sq"/>
    <rect x="3415" y="6070" width="88" height="78" class="sq"/>
    <rect x="4590" y="6040" width="88" height="78" class="sq"/>
    <rect x="6165" y="5985" width="88" height="78" class="sq"/>
    <rect x="8395" y="5525" width="86" height="80" class="sq"/>

    <circle cx="4060" cy="1625" r="38" class="dot-yellow"/>
    <circle cx="5545" cy="1595" r="38" class="dot-yellow"/>
    <circle cx="6685" cy="1565" r="38" class="dot-yellow"/>
    <circle cx="4015" cy="2690" r="34" class="dot-yellow"/>
    <circle cx="5480" cy="2690" r="34" class="dot-yellow"/>
    <circle cx="6835" cy="2635" r="30" class="dot-yellow"/>
    <circle cx="1460" cy="3825" r="38" class="dot-yellow"/>
    <circle cx="1510" cy="5255" r="38" class="dot-yellow"/>
    <circle cx="4040" cy="4995" r="38" class="dot-yellow"/>
    <circle cx="6240" cy="4990" r="38" class="dot-yellow"/>
    <circle cx="7885" cy="4925" r="38" class="dot-yellow"/>
    <circle cx="4050" cy="6050" r="38" class="dot-yellow"/>
    <circle cx="5600" cy="6040" r="38" class="dot-yellow"/>
    <circle cx="7425" cy="5965" r="38" class="dot-yellow"/>
    <circle cx="9175" cy="6015" r="34" class="dot-yellow"/>

    <circle cx="4025" cy="3485" r="32" class="dot-gray"/>
    <circle cx="5400" cy="3480" r="32" class="dot-gray"/>
    <circle cx="6880" cy="3475" r="32" class="dot-gray"/>

    <path class="symbol" d="M 3820 1725 C 3770 1660 3775 1595 3815 1555"/>
    <path class="symbol" d="M 3820 1725 C 3870 1660 3865 1595 3825 1555"/>
    <path class="symbol" d="M 3820 1725 L 3820 1835"/>
    <text x="3945" y="1895" class="text">1+1</text>

    <path class="symbol" d="M 5310 1705 C 5260 1640 5265 1575 5305 1535"/>
    <path class="symbol" d="M 5310 1705 C 5360 1640 5355 1575 5315 1535"/>
    <path class="symbol" d="M 5310 1705 L 5310 1815"/>
    <text x="5435" y="1875" class="text">1+1</text>

    <path class="symbol" d="M 6485 1660 C 6435 1595 6440 1535 6480 1495"/>
    <path class="symbol" d="M 6485 1660 C 6535 1595 6530 1535 6490 1495"/>
    <path class="symbol" d="M 6485 1660 L 6485 1770"/>
    <text x="6610" y="1830" class="text">1+1</text>

    <path class="symbol" d="M 3900 2845 C 3850 2780 3855 2715 3895 2675"/>
    <path class="symbol" d="M 3900 2845 C 3950 2780 3945 2715 3905 2675"/>
    <path class="symbol" d="M 3900 2845 L 3900 2955"/>
    <text x="4025" y="3015" class="text">1+1</text>

    <path class="symbol" d="M 5325 2835 C 5275 2770 5280 2705 5320 2665"/>
    <path class="symbol" d="M 5325 2835 C 5375 2770 5370 2705 5330 2665"/>
    <path class="symbol" d="M 5325 2835 L 5325 2945"/>
    <text x="5450" y="3005" class="text">1+1</text>

    <path class="symbol" d="M 6815 2850 C 6765 2785 6770 2720 6810 2680"/>
    <path class="symbol" d="M 6815 2850 C 6865 2785 6860 2720 6820 2680"/>
    <path class="symbol" d="M 6815 2850 L 6815 2960"/>
    <text x="6940" y="3020" class="text">1+1</text>

    <path class="symbol" d="M 1430 3925 C 1380 3860 1385 3795 1425 3755"/>
    <path class="symbol" d="M 1430 3925 C 1480 3860 1475 3795 1435 3755"/>
    <path class="symbol" d="M 1430 3925 L 1430 4035"/>
    <text x="1555" y="4095" class="text">1+1</text>

    <path class="symbol" d="M 1465 5375 C 1415 5310 1420 5245 1460 5205"/>
    <path class="symbol" d="M 1465 5375 C 1515 5310 1510 5245 1470 5205"/>
    <path class="symbol" d="M 1465 5375 L 1465 5485"/>
    <text x="1590" y="5545" class="text">1+1</text>

    <path class="symbol" d="M 3935 3660 C 3885 3595 3890 3530 3930 3490"/>
    <path class="symbol" d="M 3935 3660 C 3985 3595 3980 3530 3940 3490"/>
    <path class="symbol" d="M 3935 3660 L 3935 3770"/>
    <text x="4060" y="3825" class="text">1+1</text>

    <path class="symbol" d="M 5300 3655 C 5250 3590 5255 3525 5295 3485"/>
    <path class="symbol" d="M 5300 3655 C 5350 3590 5345 3525 5305 3485"/>
    <path class="symbol" d="M 5300 3655 L 5300 3765"/>
    <text x="5425" y="3820" class="text">1+1</text>

    <path class="symbol" d="M 6780 3650 C 6730 3585 6735 3520 6775 3480"/>
    <path class="symbol" d="M 6780 3650 C 6830 3585 6825 3520 6785 3480"/>
    <path class="symbol" d="M 6780 3650 L 6780 3760"/>
    <text x="6905" y="3815" class="text">1+1</text>

    <path class="symbol" d="M 3880 5105 C 3830 5040 3835 4975 3875 4935"/>
    <path class="symbol" d="M 3880 5105 C 3930 5040 3925 4975 3885 4935"/>
    <path class="symbol" d="M 3880 5105 L 3880 5215"/>
    <text x="4005" y="5275" class="text">1+1</text>

    <path class="symbol" d="M 5725 5110 C 5675 5045 5680 4980 5720 4940"/>
    <path class="symbol" d="M 5725 5110 C 5775 5045 5770 4980 5730 4940"/>
    <path class="symbol" d="M 5725 5110 L 5725 5220"/>
    <text x="5850" y="5280" class="text">1+1</text>

    <path class="symbol" d="M 7615 5065 C 7565 5000 7570 4935 7610 4895"/>
    <path class="symbol" d="M 7615 5065 C 7665 5000 7660 4935 7620 4895"/>
    <path class="symbol" d="M 7615 5065 L 7615 5175"/>
    <text x="7740" y="5235" class="text">1+1</text>

    <path class="symbol" d="M 3965 6160 C 3915 6095 3920 6030 3960 5990"/>
    <path class="symbol" d="M 3965 6160 C 4015 6095 4010 6030 3970 5990"/>
    <path class="symbol" d="M 3965 6160 L 3965 6270"/>
    <text x="4090" y="6320" class="text">1+1</text>

    <path class="symbol" d="M 5545 6155 C 5495 6090 5500 6025 5540 5985"/>
    <path class="symbol" d="M 5545 6155 C 5595 6090 5590 6025 5550 5985"/>
    <path class="symbol" d="M 5545 6155 L 5545 6265"/>
    <text x="5670" y="6320" class="text">1+1</text>

    <path class="symbol" d="M 7365 6090 C 7315 6025 7320 5960 7360 5920"/>
    <path class="symbol" d="M 7365 6090 C 7415 6025 7410 5960 7370 5920"/>
    <path class="symbol" d="M 7365 6090 L 7365 6200"/>
    <text x="7490" y="6255" class="text">1+1</text>

    <text x="2960" y="6360" class="title">A</text>
    <text x="8780" y="5420" class="title">B</text>
</svg>
